<svg width="71" height="70" viewBox="0 0 71 70" fill="none" xmlns="http://www.w3.org/2000/svg">
<g clip-path="url(#clip0_14347_144460)">
<path d="M47.7666 38.6514H24.5508C23.8086 38.6514 23.207 38.0497 23.207 37.3076V33.9932C23.207 33.251 23.8087 32.6494 24.5508 32.6494H47.7666C48.5089 32.6494 49.1104 33.2511 49.1104 33.9932V37.3076C49.1104 38.0497 48.5089 38.6514 47.7666 38.6514Z" fill="#4984F6"/>
<path d="M49.1115 33.9924V37.3064C49.1115 38.0488 48.51 38.6504 47.7676 38.6504H43.666C44.4084 38.6504 45.01 38.0488 45.01 37.3064V33.9924C45.01 33.25 44.4084 32.6484 43.666 32.6484H47.7676C48.51 32.6484 49.1115 33.25 49.1115 33.9924Z" fill="#4984F6"/>
<path d="M62.3482 12.2771V15.5926C62.3482 16.0957 62.0721 16.5346 61.6619 16.7643C61.4678 16.8736 61.2436 16.9365 61.0043 16.9365H24.551C23.8086 16.9365 23.207 16.335 23.207 15.5926V12.2771C23.207 11.5361 23.8086 10.9346 24.551 10.9346H61.0043C61.7467 10.9346 62.3482 11.5361 62.3482 12.2771Z" fill="#4984F6"/>
<path d="M62.3471 13.7838L61.4885 14.7736L61.6607 16.7643C61.4666 16.8736 61.2424 16.9365 61.0031 16.9365H51.5996L51.6879 15.917C51.7512 15.1861 51.5155 14.4608 51.0347 13.9068L49.0908 11.6674C48.9022 11.45 48.8256 11.1889 48.842 10.9346H61.0031C61.7455 10.9346 62.3471 11.5361 62.3471 12.2771V13.7838Z" fill="#4984F6"/>
<path d="M33.042 60.3662H24.5508C23.8086 60.3662 23.207 59.7645 23.207 59.0224V55.7081C23.207 54.9658 23.8087 54.3643 24.5508 54.3643H33.042C33.7843 54.3643 34.3858 54.966 34.3858 55.7081V59.0224C34.3858 59.7645 33.7843 60.3662 33.042 60.3662Z" fill="#4984F6"/>
<path d="M34.3869 55.7072V59.0213C34.3869 59.7637 33.7854 60.3652 33.043 60.3652H28.9414C29.6838 60.3652 30.2854 59.7637 30.2854 59.0213V55.7072C30.2854 54.9648 29.6838 54.3633 28.9414 54.3633H33.043C33.7854 54.3633 34.3869 54.9648 34.3869 55.7072Z" fill="#4984F6"/>
<path d="M61.6748 18.2983L65.4624 19.903C66.1724 20.2038 66.9473 19.6408 66.8806 18.8727L66.525 14.7745L69.2217 11.6681C69.7271 11.0859 69.4311 10.1749 68.68 10.001L64.6725 9.07281L62.5514 5.5482C62.1538 4.88758 61.196 4.88758 60.7984 5.5482L58.6774 9.07281L54.6699 10.001C53.9187 10.1749 53.6227 11.0859 54.1282 11.6681L56.8248 14.7745L56.4692 18.8727C56.4025 19.6409 57.1774 20.2038 57.8874 19.903L61.6748 18.2983Z" fill="#FCC75E"/>
<path d="M69.2215 11.6675L66.5254 14.7738L66.8809 18.8726C66.9479 19.641 66.1727 20.2042 65.4631 19.9035L61.6746 18.2984L61.1729 18.5103C62.2557 16.871 62.8846 14.9078 62.8846 12.7968C62.8846 10.2539 61.9713 7.92417 60.4551 6.11948L60.7982 5.548C61.1961 4.88765 62.1545 4.88765 62.551 5.548L64.6729 9.07261L68.6801 10.0009C69.4307 10.1746 69.7273 11.0851 69.2215 11.6675Z" fill="#FCC75E"/>
<path d="M16.5074 43.2099H2.99922C2.20037 43.2099 1.55273 42.5622 1.55273 41.7634V29.5168C1.55273 28.7179 2.20037 28.0703 2.99922 28.0703H16.5074C17.3063 28.0703 17.9539 28.7179 17.9539 29.5168V41.7634C17.9539 42.5622 17.3063 43.2099 16.5074 43.2099Z" fill="#DBE6FD"/>
<path d="M9.75295 37.3407C11.0663 37.3407 12.131 36.276 12.131 34.9626V33.7291C12.131 32.854 11.4216 32.1445 10.5465 32.1445H8.95957C8.08443 32.1445 7.375 32.854 7.375 33.7291V34.9626C7.375 36.276 8.43963 37.3407 9.75295 37.3407Z" fill="#FFCEBF"/>
<path d="M14.8211 43.2102H4.6875L5.23711 40.2092C5.38203 39.4189 6.06973 38.8447 6.87363 38.8447H12.635C13.082 38.8447 13.4949 39.0238 13.7971 39.3178C14.0363 39.5516 14.2072 39.8592 14.2715 40.2092L14.8211 43.2102Z" fill="#266CF4"/>
<path d="M14.8201 43.2098H12.3496C13.148 43.2098 13.7961 42.5617 13.7961 41.7633V39.3174C14.0354 39.5512 14.2063 39.8588 14.2705 40.2088L14.8201 43.2098Z" fill="#4984F6"/>
<path d="M16.5074 64.9247H2.99922C2.20037 64.9247 1.55273 64.2771 1.55273 63.4782V51.2316C1.55273 50.4328 2.20037 49.7852 2.99922 49.7852H16.5074C17.3063 49.7852 17.9539 50.4328 17.9539 51.2316V63.4782C17.9539 64.2771 17.3063 64.9247 16.5074 64.9247Z" fill="#DBE6FD"/>
<path d="M9.75295 59.0554C11.0663 59.0554 12.131 57.9907 12.131 56.6774V55.4439C12.131 54.5688 11.4216 53.8594 10.5465 53.8594H8.95957C8.08443 53.8594 7.375 54.5688 7.375 55.4439V56.6774C7.375 57.9907 8.43963 59.0554 9.75295 59.0554Z" fill="#FFCEBF"/>
<path d="M14.8211 64.925H4.6875L5.23711 61.924C5.38203 61.1338 6.06973 60.5596 6.87363 60.5596H12.635C13.082 60.5596 13.4949 60.7387 13.7971 61.0326C14.0363 61.2664 14.2072 61.574 14.2715 61.924L14.8211 64.925Z" fill="#266CF4"/>
<path d="M14.8201 64.9246H12.3496C13.148 64.9246 13.7961 64.2766 13.7961 63.4781V61.0322C14.0354 61.266 14.2063 61.5736 14.2705 61.9236L14.8201 64.9246Z" fill="#FCC75E"/>
<path d="M16.5074 21.5155H2.99922C2.20037 21.5155 1.55273 20.8679 1.55273 20.069V7.82246C1.55273 7.02361 2.20037 6.37598 2.99922 6.37598H16.5074C17.3063 6.37598 17.9539 7.02361 17.9539 7.82246V20.069C17.9539 20.8679 17.3063 21.5155 16.5074 21.5155Z" fill="#DBE6FD"/>
<path d="M9.75295 15.6462C11.0663 15.6462 12.131 14.5816 12.131 13.2682V12.0348C12.131 11.1596 11.4216 10.4502 10.5465 10.4502H8.95957C8.08443 10.4502 7.375 11.1596 7.375 12.0348V13.2682C7.375 14.5816 8.43963 15.6462 9.75295 15.6462Z" fill="#FFCEBF"/>
<path d="M14.8211 21.5158H4.6875L5.23711 18.5148C5.38203 17.7246 6.06973 17.1504 6.87363 17.1504H12.635C13.082 17.1504 13.4949 17.3295 13.7971 17.6234C14.0363 17.8572 14.2072 18.1648 14.2715 18.5148L14.8211 21.5158Z" fill="#4984F6"/>
<path d="M14.8201 21.5154H12.3496C13.148 21.5154 13.7961 20.8674 13.7961 20.0689V17.623C14.0354 17.8568 14.2063 18.1645 14.2705 18.5145L14.8201 21.5154Z" fill="#4984F6"/>
<path d="M16.5059 43.2332H2.97447C2.17426 43.2332 1.52539 42.5845 1.52539 41.7841V29.5165C1.52539 28.7163 2.17412 28.0674 2.97447 28.0674H16.5059C17.3062 28.0674 17.955 28.7161 17.955 29.5165V41.7841C17.9549 42.5845 17.3062 43.2332 16.5059 43.2332Z" stroke="#201F36" stroke-width="1.5" stroke-miterlimit="10" stroke-linecap="round" stroke-linejoin="round"/>
<path d="M9.73961 37.3543C11.0553 37.3543 12.1218 36.2878 12.1218 34.9722V33.7367C12.1218 32.8601 11.4111 32.1494 10.5345 32.1494H8.94473C8.06809 32.1494 7.35742 32.8601 7.35742 33.7367V34.9722C7.35756 36.2878 8.42396 37.3543 9.73961 37.3543Z" stroke="#201F36" stroke-width="1.5" stroke-miterlimit="10" stroke-linecap="round" stroke-linejoin="round"/>
<path d="M14.8149 43.2329H4.66406L5.21449 40.2266C5.35941 39.4351 6.04902 38.8604 6.85361 38.8604H12.6252C13.4298 38.8604 14.1194 39.4353 14.2643 40.2266L14.8149 43.2329Z" stroke="#201F36" stroke-width="1.5" stroke-miterlimit="10" stroke-linecap="round" stroke-linejoin="round"/>
<path d="M47.7686 38.6514H24.5528C23.8105 38.6514 23.209 38.0497 23.209 37.3076V33.9932C23.209 33.251 23.8107 32.6494 24.5528 32.6494H47.7686C48.5108 32.6494 49.1124 33.2511 49.1124 33.9932V37.3076C49.1124 38.0497 48.5108 38.6514 47.7686 38.6514Z" stroke="#201F36" stroke-width="1.5" stroke-miterlimit="10" stroke-linecap="round" stroke-linejoin="round"/>
<path d="M16.5059 21.5183H2.97447C2.17426 21.5183 1.52539 20.8696 1.52539 20.0693V7.80162C1.52539 7.00141 2.17412 6.35254 2.97447 6.35254H16.5059C17.3062 6.35254 17.955 7.00127 17.955 7.80162V20.0693C17.9549 20.8696 17.3062 21.5183 16.5059 21.5183Z" stroke="#201F36" stroke-width="1.5" stroke-miterlimit="10" stroke-linecap="round" stroke-linejoin="round"/>
<path d="M9.73961 15.6395C11.0553 15.6395 12.1218 14.5729 12.1218 13.2574V12.0219C12.1218 11.1452 11.4111 10.4346 10.5345 10.4346H8.94473C8.06809 10.4346 7.35742 11.1452 7.35742 12.0219V13.2574C7.35756 14.5729 8.42396 15.6395 9.73961 15.6395Z" stroke="#201F36" stroke-width="1.5" stroke-miterlimit="10" stroke-linecap="round" stroke-linejoin="round"/>
<path d="M14.8149 21.518H4.66406L5.21449 18.5117C5.35941 17.7203 6.04902 17.1455 6.85361 17.1455H12.6252C13.4298 17.1455 14.1194 17.7204 14.2643 18.5117L14.8149 21.518Z" stroke="#201F36" stroke-width="1.5" stroke-miterlimit="10" stroke-linecap="round" stroke-linejoin="round"/>
<path d="M49.0703 10.9346H24.551C23.8086 10.9346 23.207 11.5361 23.207 12.2771V15.5926C23.207 16.335 23.8086 16.9365 24.551 16.9365H56.6389" stroke="#201F36" stroke-width="1.5" stroke-miterlimit="10" stroke-linecap="round" stroke-linejoin="round"/>
<path d="M17.9549 59.7732V63.4989C17.9549 64.2992 17.3062 64.948 16.5058 64.948H2.97447C2.17426 64.948 1.52539 64.2993 1.52539 63.4989V51.2313C1.52539 50.4311 2.17412 49.7822 2.97447 49.7822H16.5059C17.3062 49.7822 17.955 50.431 17.955 51.2313V54.9674" stroke="#201F36" stroke-width="1.5" stroke-miterlimit="10" stroke-linecap="round" stroke-linejoin="round"/>
<path d="M9.73961 59.0691C11.0553 59.0691 12.1218 58.0026 12.1218 56.6871V55.4516C12.1218 54.5749 11.4111 53.8643 10.5345 53.8643H8.94473C8.06809 53.8643 7.35742 54.5749 7.35742 55.4516V56.6871C7.35756 58.0026 8.42396 59.0691 9.73961 59.0691Z" stroke="#201F36" stroke-width="1.5" stroke-miterlimit="10" stroke-linecap="round" stroke-linejoin="round"/>
<path d="M14.8149 64.9477H4.66406L5.21449 61.9414C5.35941 61.15 6.04902 60.5752 6.85361 60.5752H12.6252C13.4298 60.5752 14.1194 61.1501 14.2643 61.9414L14.8149 64.9477Z" stroke="#201F36" stroke-width="1.5" stroke-miterlimit="10" stroke-linecap="round" stroke-linejoin="round"/>
<path d="M33.044 60.3662H24.5528C23.8105 60.3662 23.209 59.7645 23.209 59.0224V55.7081C23.209 54.9658 23.8107 54.3643 24.5528 54.3643H33.044C33.7862 54.3643 34.3878 54.966 34.3878 55.7081V59.0224C34.3878 59.7645 33.7862 60.3662 33.044 60.3662Z" stroke="#201F36" stroke-width="1.5" stroke-miterlimit="10" stroke-linecap="round" stroke-linejoin="round"/>
<path d="M61.6767 18.2983L65.4644 19.903C66.1744 20.2038 66.9493 19.6408 66.8826 18.8727L66.527 14.7745L69.2236 11.6681C69.7291 11.0859 69.4331 10.1749 68.6819 10.001L64.6744 9.07281L62.5534 5.5482C62.1558 4.88758 61.1979 4.88758 60.8004 5.5482L58.6793 9.07281L54.6718 10.001C53.9207 10.1749 53.6247 11.0859 54.1301 11.6681L56.8268 14.7745L56.4712 18.8727C56.4045 19.6409 57.1794 20.2038 57.8894 19.903L61.6767 18.2983Z" stroke="#201F36" stroke-width="1.5" stroke-miterlimit="10" stroke-linecap="round" stroke-linejoin="round"/>
</g>
<defs>
<clipPath id="clip0_14347_144460">
<rect width="70" height="70" fill="white" transform="translate(0.5)"/>
</clipPath>
</defs>
</svg>
